<mxfile host="app.diagrams.net" modified="2020-07-27T23:18:38.276Z" agent="5.0 (Macintosh; Intel Mac OS X 10_15_4) AppleWebKit/605.1.15 (KHTML, like Gecko) Version/13.1 Safari/605.1.15" etag="obJ3dU2QI5fY0EDerCNZ" version="13.5.3" type="github">
  <diagram id="0MyxCYmi0HsOvnk1gjU4" name="Page-1">
    <mxGraphModel dx="524" dy="539" grid="1" gridSize="10" guides="1" tooltips="1" connect="1" arrows="1" fold="1" page="1" pageScale="1" pageWidth="827" pageHeight="1169" math="0" shadow="0">
      <root>
        <mxCell id="0" />
        <mxCell id="1" parent="0" />
        <mxCell id="21ggu57utm0WO7wQbZsQ-2" value="Client" style="shape=internalStorage;whiteSpace=wrap;html=1;backgroundOutline=1;" vertex="1" parent="1">
          <mxGeometry x="90" y="50" width="80" height="80" as="geometry" />
        </mxCell>
        <mxCell id="21ggu57utm0WO7wQbZsQ-11" value="HTTP/&lt;br&gt;HTTPS" style="edgeStyle=orthogonalEdgeStyle;rounded=0;orthogonalLoop=1;jettySize=auto;html=1;exitX=0.5;exitY=0;exitDx=0;exitDy=0;entryX=0.5;entryY=1;entryDx=0;entryDy=0;" edge="1" parent="1" source="21ggu57utm0WO7wQbZsQ-3" target="21ggu57utm0WO7wQbZsQ-2">
          <mxGeometry relative="1" as="geometry" />
        </mxCell>
        <mxCell id="21ggu57utm0WO7wQbZsQ-3" value="Single server" style="rounded=1;whiteSpace=wrap;html=1;" vertex="1" parent="1">
          <mxGeometry x="70" y="190" width="120" height="60" as="geometry" />
        </mxCell>
        <mxCell id="21ggu57utm0WO7wQbZsQ-9" style="edgeStyle=orthogonalEdgeStyle;rounded=0;orthogonalLoop=1;jettySize=auto;html=1;entryX=0.5;entryY=1;entryDx=0;entryDy=0;" edge="1" parent="1" source="21ggu57utm0WO7wQbZsQ-4" target="21ggu57utm0WO7wQbZsQ-3">
          <mxGeometry relative="1" as="geometry" />
        </mxCell>
        <mxCell id="21ggu57utm0WO7wQbZsQ-4" value="" style="ellipse;whiteSpace=wrap;html=1;aspect=fixed;" vertex="1" parent="1">
          <mxGeometry x="110" y="280" width="40" height="40" as="geometry" />
        </mxCell>
        <mxCell id="21ggu57utm0WO7wQbZsQ-5" value="" style="ellipse;whiteSpace=wrap;html=1;aspect=fixed;" vertex="1" parent="1">
          <mxGeometry x="120" y="290" width="40" height="40" as="geometry" />
        </mxCell>
        <mxCell id="21ggu57utm0WO7wQbZsQ-6" value="" style="ellipse;whiteSpace=wrap;html=1;aspect=fixed;" vertex="1" parent="1">
          <mxGeometry x="130" y="300" width="40" height="40" as="geometry" />
        </mxCell>
        <mxCell id="21ggu57utm0WO7wQbZsQ-7" value="" style="ellipse;whiteSpace=wrap;html=1;aspect=fixed;" vertex="1" parent="1">
          <mxGeometry x="140" y="310" width="40" height="40" as="geometry" />
        </mxCell>
        <mxCell id="21ggu57utm0WO7wQbZsQ-8" value="" style="ellipse;whiteSpace=wrap;html=1;aspect=fixed;" vertex="1" parent="1">
          <mxGeometry x="146" y="320" width="40" height="40" as="geometry" />
        </mxCell>
        <mxCell id="21ggu57utm0WO7wQbZsQ-10" value="Local Compute Resources" style="text;html=1;strokeColor=none;fillColor=none;align=center;verticalAlign=middle;whiteSpace=wrap;rounded=0;" vertex="1" parent="1">
          <mxGeometry x="60" y="360" width="120" height="20" as="geometry" />
        </mxCell>
        <mxCell id="21ggu57utm0WO7wQbZsQ-12" value="Client" style="shape=internalStorage;whiteSpace=wrap;html=1;backgroundOutline=1;" vertex="1" parent="1">
          <mxGeometry x="340" y="50" width="80" height="80" as="geometry" />
        </mxCell>
        <mxCell id="21ggu57utm0WO7wQbZsQ-13" value="HTTP/&lt;br&gt;HTTPS" style="edgeStyle=orthogonalEdgeStyle;rounded=0;orthogonalLoop=1;jettySize=auto;html=1;exitX=0.5;exitY=0;exitDx=0;exitDy=0;entryX=0.5;entryY=1;entryDx=0;entryDy=0;" edge="1" parent="1" source="21ggu57utm0WO7wQbZsQ-14" target="21ggu57utm0WO7wQbZsQ-12">
          <mxGeometry relative="1" as="geometry" />
        </mxCell>
        <mxCell id="21ggu57utm0WO7wQbZsQ-14" value="ALB&lt;br&gt;Sticky sesiÃ³n" style="rounded=1;whiteSpace=wrap;html=1;" vertex="1" parent="1">
          <mxGeometry x="320" y="190" width="120" height="60" as="geometry" />
        </mxCell>
        <mxCell id="21ggu57utm0WO7wQbZsQ-15" style="edgeStyle=orthogonalEdgeStyle;rounded=0;orthogonalLoop=1;jettySize=auto;html=1;entryX=0.5;entryY=1;entryDx=0;entryDy=0;exitX=0.5;exitY=0;exitDx=0;exitDy=0;" edge="1" parent="1" source="21ggu57utm0WO7wQbZsQ-22" target="21ggu57utm0WO7wQbZsQ-14">
          <mxGeometry relative="1" as="geometry">
            <Array as="points">
              <mxPoint x="380" y="270" />
            </Array>
          </mxGeometry>
        </mxCell>
        <mxCell id="21ggu57utm0WO7wQbZsQ-16" value="" style="ellipse;whiteSpace=wrap;html=1;aspect=fixed;" vertex="1" parent="1">
          <mxGeometry x="360" y="280" width="40" height="40" as="geometry" />
        </mxCell>
        <mxCell id="21ggu57utm0WO7wQbZsQ-17" value="" style="ellipse;whiteSpace=wrap;html=1;aspect=fixed;" vertex="1" parent="1">
          <mxGeometry x="370" y="290" width="40" height="40" as="geometry" />
        </mxCell>
        <mxCell id="21ggu57utm0WO7wQbZsQ-18" value="" style="ellipse;whiteSpace=wrap;html=1;aspect=fixed;" vertex="1" parent="1">
          <mxGeometry x="380" y="300" width="40" height="40" as="geometry" />
        </mxCell>
        <mxCell id="21ggu57utm0WO7wQbZsQ-19" value="" style="ellipse;whiteSpace=wrap;html=1;aspect=fixed;" vertex="1" parent="1">
          <mxGeometry x="390" y="310" width="40" height="40" as="geometry" />
        </mxCell>
        <mxCell id="21ggu57utm0WO7wQbZsQ-20" value="" style="ellipse;whiteSpace=wrap;html=1;aspect=fixed;" vertex="1" parent="1">
          <mxGeometry x="396" y="320" width="40" height="40" as="geometry" />
        </mxCell>
        <mxCell id="21ggu57utm0WO7wQbZsQ-21" value="compute resources" style="text;html=1;strokeColor=none;fillColor=none;align=center;verticalAlign=middle;whiteSpace=wrap;rounded=0;" vertex="1" parent="1">
          <mxGeometry x="310" y="360" width="120" height="20" as="geometry" />
        </mxCell>
        <mxCell id="21ggu57utm0WO7wQbZsQ-22" value="specific&lt;br&gt;instance" style="ellipse;whiteSpace=wrap;html=1;aspect=fixed;" vertex="1" parent="1">
          <mxGeometry x="430" y="270" width="40" height="40" as="geometry" />
        </mxCell>
        <mxCell id="21ggu57utm0WO7wQbZsQ-23" value="&lt;h1&gt;if HTTP/S, &amp;nbsp;&lt;/h1&gt;&lt;h1&gt;&lt;span style=&quot;font-size: 12px ; font-weight: normal&quot;&gt;use ALB&#39;s sticky session to bind to a specific compute resource&amp;nbsp;during&amp;nbsp;the session&lt;/span&gt;&lt;br&gt;&lt;/h1&gt;" style="text;html=1;strokeColor=none;fillColor=none;spacing=5;spacingTop=-20;whiteSpace=wrap;overflow=hidden;rounded=0;" vertex="1" parent="1">
          <mxGeometry x="280" y="450" width="200" height="110" as="geometry" />
        </mxCell>
      </root>
    </mxGraphModel>
  </diagram>
</mxfile>
